<svg xmlns="http://www.w3.org/2000/svg" viewBox="0 0 24 24" fill="none" aria-hidden="true">
  <path d="M7.2 3.5h7.4l3.9 3.9v11.1a2 2 0 0 1-2 2H7.2a2 2 0 0 1-2-2v-13a2 2 0 0 1 2-2Z" stroke="#0B3A53" stroke-width="1.35" stroke-linejoin="round"/>
  <path d="M14.6 3.5v2.9a1 1 0 0 0 1 1h2.9" stroke="#009FDF" stroke-width="1.35" stroke-linejoin="round"/>
  <path d="M9 10h5.8" stroke="#7AA8BF" stroke-width="1.2" stroke-linecap="round"/>
  <path d="M9 12.7h4.4" stroke="#7AA8BF" stroke-width="1.2" stroke-linecap="round"/>
  <circle cx="10.2" cy="16.4" r="0.95" fill="#009FDF"/>
  <circle cx="13" cy="15.15" r="0.95" fill="#F59E0B"/>
  <circle cx="14.75" cy="17.45" r="0.95" fill="#009FDF"/>
  <path d="M11 16.05 12.15 15.55" stroke="#0B3A53" stroke-width="1.1" stroke-linecap="round"/>
  <path d="m13.55 15.95.55.75" stroke="#0B3A53" stroke-width="1.1" stroke-linecap="round"/>
  <path d="M11 17 13.8 17.3" stroke="#0B3A53" stroke-width="1.1" stroke-linecap="round"/>
  <path d="M13.9 5.4c2.7 0 5 1 6.1 2.4" stroke="#009FDF" stroke-width="1.55" stroke-linecap="round"/>
  <path d="M20 7.8c-.45.78-1.34 1.45-2.5 1.88" stroke="#F59E0B" stroke-width="1.55" stroke-linecap="round"/>
</svg>
